<?xml version="1.0" encoding="UTF-8"?> <svg xmlns="http://www.w3.org/2000/svg" width="86" height="97" viewBox="0 0 86 97" fill="none"><path d="M15.4465 76.8754H7.89283V52.4468H15.4465V44.3932H7.89283V19.4646H15.4465V11.8218H0L0.107139 84.9647H15.4465V76.8754Z" fill="#704C98"></path><path d="M74.268 47.4464C74.7144 47.0893 75.1429 46.7321 75.5358 46.375C75.6608 46.25 75.7858 46.125 75.9287 46C76.1787 45.75 76.4287 45.4821 76.6787 45.2321C77.1608 44.7143 77.5894 44.1607 78.0001 43.5893C78.1965 43.3036 78.393 43.0178 78.5715 42.7321C78.8394 42.3036 79.0893 41.8572 79.3215 41.4107C79.5536 40.9643 79.768 40.5178 79.9466 40.0536C80.0001 39.8928 80.0715 39.75 80.1251 39.5893C80.9287 37.4643 81.3037 35.1964 81.2501 32.9286C81.2501 32.8571 81.2501 32.7857 81.2501 32.6964C81.2501 32.5714 81.2501 32.4286 81.2501 32.3036C81.2501 31.9643 81.2144 31.6429 81.1787 31.3214C81.143 30.9821 81.1073 30.6607 81.0537 30.3393C81.018 30.0714 80.9644 29.7857 80.9108 29.5179C80.8751 29.3036 80.8215 29.0893 80.7679 28.8571C80.7143 28.625 80.6608 28.3929 80.5894 28.1786C80.518 27.9107 80.4465 27.6607 80.3572 27.4107C80.1787 26.8214 79.9465 26.2321 79.6965 25.6607C79.6072 25.4464 79.5179 25.25 79.4108 25.0357C79.2679 24.7143 79.1073 24.3928 78.9287 24.0714C78.8037 23.8214 78.6608 23.5714 78.5179 23.3393C78.4822 23.3036 78.4643 23.25 78.4286 23.1964C78.2858 22.9643 78.1429 22.7321 78.0001 22.5C77.8394 22.25 77.6608 22 77.4823 21.75C77.3037 21.5 77.1251 21.2679 76.9466 21.0179C76.768 20.7857 76.5893 20.5536 76.4108 20.3393C76.3751 20.2857 76.3215 20.2321 76.2858 20.1964C75.8929 19.75 75.4822 19.3214 75.0715 18.9107C74.6072 18.4643 74.1251 18.0357 73.6251 17.625C73.3751 17.4286 73.1072 17.2143 72.8393 17.0179C72.5715 16.8214 72.3037 16.625 72.0359 16.4286C71.7501 16.25 71.4822 16.0536 71.1786 15.875C71.1786 15.875 71.1786 15.875 71.1608 15.875C70.875 15.6964 70.5894 15.5357 70.3037 15.375C70.0001 15.1964 69.6965 15.0357 69.3929 14.875C68.7679 14.5536 68.1251 14.2679 67.4644 13.9821C67.1251 13.8571 66.7858 13.7143 66.4466 13.5893C66.1073 13.4643 65.768 13.3571 65.4287 13.2321C65.393 13.2321 65.3751 13.2321 65.3394 13.2143C65.018 13.1071 64.6965 13.0179 64.3572 12.9286C64.3393 12.9286 64.3215 12.9286 64.2858 12.9286C63.9287 12.8214 63.5537 12.7321 63.1965 12.6607C63.1608 12.6607 63.1072 12.6429 63.0715 12.625C62.7144 12.5536 62.3751 12.4821 62.0179 12.4107C60.9822 12.2143 59.9108 12.0714 58.8036 11.9821C58.3572 11.9464 57.9108 11.9107 57.4644 11.8928C57.2679 11.8928 57.0715 11.8929 56.875 11.875C56.5715 11.875 56.2501 11.875 55.9465 11.875H25.5536V19.5179H58.1966C58.4644 19.5179 58.7501 19.5179 59.0179 19.5179C59.1608 19.5179 59.3036 19.5179 59.4465 19.5179C59.5893 19.5179 59.7323 19.5179 59.8751 19.5536C60.018 19.5536 60.1608 19.5536 60.3037 19.5893C60.393 19.5893 60.5001 19.5893 60.5894 19.625C60.7679 19.625 60.9465 19.6607 61.1072 19.6786C62.125 19.8036 63.0715 19.9821 63.9644 20.2321C65.0001 20.5179 65.9465 20.8929 66.8215 21.3214C67.0001 21.4107 67.1608 21.5 67.3394 21.5893C68.018 21.9464 68.6251 22.3571 69.1965 22.7857C69.3394 22.8929 69.4822 23 69.6072 23.125C70.1608 23.5714 70.6429 24.0714 71.0894 24.5714C71.2144 24.6964 71.3036 24.8214 71.4108 24.9464C71.6251 25.2143 71.8037 25.4643 71.9822 25.75C72.0715 25.8929 72.1608 26.0179 72.2323 26.1607C72.3215 26.3036 72.4109 26.4464 72.4823 26.5893C72.8037 27.1429 73.0537 27.7321 73.2501 28.3214C73.2501 28.3214 73.2501 28.3393 73.2501 28.3571C73.3037 28.5 73.3572 28.6429 73.3929 28.8036C73.5358 29.25 73.643 29.7143 73.7144 30.1786C73.768 30.4821 73.8037 30.8036 73.8216 31.1071C73.9287 32.375 73.8215 33.6607 73.5 34.8928C73.3572 35.4643 73.1609 36.0179 72.9287 36.5536C72.7859 36.875 72.6251 37.1786 72.4644 37.4822C72.393 37.6072 72.3216 37.7143 72.2501 37.8393C72.143 38.0179 72.018 38.2143 71.9108 38.3929C69.6073 41.8036 65.2501 44.3393 58.8573 44.4286C57.7323 45.8036 56.4466 47.0536 54.9644 48.1428C57.0001 49.3571 58.7501 50.8214 60.2322 52.5H61.5001C65.7858 52.5 69.1609 53.6964 71.5894 55.5357C71.9466 55.8036 72.268 56.0714 72.5715 56.375C75.2144 58.8393 76.4643 62.1786 76.2858 65.4643C76.2858 65.625 76.2858 65.7679 76.2501 65.9286C76.2501 66 76.2501 66.0714 76.2322 66.1429C76.2322 66.25 76.2143 66.3393 76.1965 66.4286C76.1965 66.5179 76.1609 66.625 76.1609 66.7143C76.1609 66.75 76.1609 66.7857 76.1609 66.8214C76.143 66.9643 76.1072 67.0893 76.0715 67.2321C75.9643 67.6964 75.8394 68.1607 75.6787 68.6071C75.643 68.7321 75.5894 68.8572 75.5358 68.9822C75.5001 69.1072 75.4287 69.2321 75.3751 69.3571C75.3216 69.4821 75.2679 69.5893 75.2144 69.6964C75.0358 70.0714 74.8394 70.4286 74.6073 70.7857C74.518 70.9286 74.4287 71.0536 74.3394 71.1964C74.268 71.3036 74.1786 71.4286 74.0894 71.5536C74.0179 71.6607 73.9286 71.7679 73.8393 71.875C73.7679 71.9643 73.6965 72.0714 73.6072 72.1607C73.5179 72.2679 73.4287 72.375 73.3394 72.4821C73.2501 72.5893 73.1429 72.6786 73.0536 72.7857C72.6786 73.1607 72.2858 73.5179 71.8572 73.8393C71.6608 73.9822 71.4822 74.125 71.2858 74.2679C71.2143 74.3214 71.1251 74.375 71.0359 74.4286C70.5359 74.75 70.018 75.0357 69.4644 75.3036C69.3394 75.3571 69.2323 75.4107 69.1073 75.4643C69.018 75.5179 68.9286 75.5536 68.8394 75.5893C68.7144 75.6429 68.6072 75.6786 68.4822 75.7322C68.3036 75.8036 68.1072 75.875 67.9286 75.9286C67.7858 75.9822 67.6429 76.0357 67.4822 76.0714C66.9822 76.2322 66.4643 76.375 65.9108 76.4822C65.0179 76.6786 64.0894 76.8036 63.0894 76.875C62.8394 76.8929 62.5716 76.9107 62.3216 76.9107C62.0537 76.9107 61.7858 76.9107 61.518 76.9107H25.5536V85.0179H59.8215C60.0001 85.0179 60.1965 85.0179 60.3751 85.0179C60.5537 85.0179 60.7501 85.0179 60.9287 85.0179C62.4644 84.9822 63.9287 84.8393 65.3037 84.6429C65.6787 84.5893 66.0537 84.5179 66.4287 84.4464C66.518 84.4464 66.6072 84.4107 66.6965 84.3929C67.0536 84.3214 67.4108 84.25 67.768 84.1607C67.7858 84.1607 67.8036 84.1607 67.8215 84.1607C68.5001 84 69.143 83.8214 69.7858 83.625C69.9108 83.5893 70.0358 83.5536 70.1608 83.5C70.4108 83.4107 70.6608 83.3214 70.9108 83.2322C71.1073 83.1607 71.3036 83.0893 71.5001 83C71.6965 82.9286 71.8929 82.8393 72.0894 82.7679C72.4822 82.6072 72.8751 82.4286 73.2501 82.25C73.7501 82.0179 74.2144 81.75 74.6787 81.5C74.8394 81.4107 74.9823 81.3214 75.143 81.2322C75.2858 81.1429 75.4466 81.0536 75.5894 80.9643C76.0358 80.6786 76.4465 80.3929 76.8751 80.0893C77.2501 79.8036 77.6251 79.5179 77.9822 79.2321C78.0179 79.2143 78.0358 79.1786 78.0715 79.1607C78.1965 79.0536 78.3215 78.9464 78.4465 78.8393C78.9644 78.375 79.4644 77.8929 79.9287 77.3929C80.1073 77.1964 80.3037 76.9822 80.4822 76.7679C81.4287 75.6429 82.2322 74.4643 82.875 73.2321C82.9465 73.0893 83.0358 72.9464 83.1072 72.7857C83.7858 71.4464 84.268 70.0536 84.6072 68.6429C84.643 68.4822 84.6787 68.3214 84.7144 68.1607C84.7501 68 84.7858 67.8393 84.8036 67.6786C84.8394 67.5179 84.8573 67.3572 84.8751 67.1964C84.9109 67.0357 84.9287 66.875 84.9465 66.7143C84.9644 66.5536 84.9822 66.3929 85.0001 66.2321C85.0001 66.0714 85.0358 65.9107 85.0358 65.75C85.0358 65.6607 85.0358 65.5536 85.0537 65.4643C85.0537 65.375 85.0537 65.2857 85.0537 65.1964C85.0537 64.8393 85.0715 64.4822 85.0715 64.125C84.9644 57.4464 81.3215 50.8571 74.3036 47.5179" fill="#704C98"></path><path d="M61.732 86.2857L60.3391 86.3393C60.1427 86.3393 59.9463 86.3393 59.7499 86.3393H53.1963C50.5891 89.0179 45.9285 90.375 39.1963 90.375H24.107V52.4286H39.482C43.9998 52.4286 47.5891 53.2143 50.2141 54.7857C52.8391 56.3571 54.7142 58.5357 55.8213 61.3214C56.9285 64.1071 57.482 67.3036 57.482 70.8929C57.482 72.5179 57.4106 74.0357 57.2677 75.4643H61.4641C61.7141 75.4643 61.9642 75.4643 62.2142 75.4643C62.4642 75.4643 62.6963 75.4643 62.9284 75.4286C63.4999 75.3929 64.0534 75.3214 64.607 75.2322C64.7141 73.8572 64.7856 72.4107 64.7856 70.9107C64.7856 66.5714 64.0891 62.5893 62.6963 59.0893C61.8927 57.0536 60.7856 55.2143 59.3927 53.5893L59.2141 53.3929C59.2141 53.3929 59.1427 53.3214 59.107 53.2857C58.4284 52.5179 57.6963 51.8214 56.9106 51.1607C56.857 51.1071 56.7856 51.0714 56.7321 51.0178C56.3749 50.7321 56.0177 50.4464 55.6427 50.1786C55.1963 49.8572 54.732 49.5714 54.2499 49.2679C53.607 48.875 52.9284 48.5357 52.2141 48.2143C52.7677 47.9107 53.2856 47.6071 53.7856 47.25C54.107 47.0357 54.4106 46.7857 54.6963 46.5536C54.8392 46.4286 54.9999 46.3214 55.1427 46.2143C55.3213 46.0714 55.482 45.9107 55.6427 45.7679C56.0713 45.3929 56.482 45 56.8748 44.5714C56.9105 44.5178 56.9641 44.4822 56.9998 44.4286C57.2498 44.1429 57.4999 43.8571 57.732 43.5714C59.232 41.7321 60.3927 39.625 61.1785 37.2322C62.3035 33.8036 62.8749 29.7679 62.8749 25.25C62.8749 23.875 62.8213 22.5714 62.6963 21.3036C62.1248 21.1786 61.5535 21.0714 60.9463 21C60.7677 20.9643 60.6427 20.9643 60.4999 20.9464H60.3391C60.3391 20.9464 60.2677 20.9286 60.232 20.9286H60.1427C60.0356 20.9107 59.9284 20.8929 59.8213 20.8929H59.732C59.6249 20.8929 59.5177 20.875 59.3927 20.8571H59.3391C59.232 20.8571 59.1249 20.8571 59.0177 20.8571C58.7141 20.8571 58.4463 20.8571 58.1963 20.8571H55.3391C55.5177 22.2321 55.5892 23.6964 55.5892 25.2679C55.5892 29.1786 55.1248 32.5357 54.1963 35.3572C53.2677 38.1786 51.6606 40.3929 49.357 42C47.0535 43.6072 43.732 44.4107 39.3927 44.4107H24.1606V6.66071H34.1248C39.8391 6.66071 44.232 7.30357 47.2856 8.60714C48.4641 9.10714 49.4998 9.73214 50.4106 10.4464H55.9463C56.2678 10.4464 56.5891 10.4464 56.9106 10.4464H56.982C57.1784 10.4464 57.357 10.4464 57.5534 10.4643C57.9998 10.4643 58.4642 10.5179 58.9284 10.5536C59.1784 10.5714 59.4284 10.6071 59.6784 10.625C57.6606 7.08928 54.482 4.32143 50.3927 2.57143C46.3391 0.83929 41.0177 0 34.1427 0H16.8928V97H39.2677C49.0177 97 55.9463 94.4643 59.8213 89.4643C60.5713 88.4822 61.232 87.4286 61.8213 86.2679" fill="#FEFEFE"></path><path d="M52.9285 46.1071C53.6963 45.5714 54.3928 45 55.0535 44.375H18.2142V52.4286H56.2499C55.4106 51.6964 54.482 51.0357 53.482 50.4286C52.9463 50.1071 52.3392 49.8036 51.5713 49.4464L49.0534 48.3036L51.482 46.9821C52.0356 46.6786 52.4999 46.3928 52.9285 46.0893" fill="#FEFEFE"></path></svg> 